<?xml version="1.0" encoding="UTF-8"?>
<svg xmlns="http://www.w3.org/2000/svg" xmlns:xlink="http://www.w3.org/1999/xlink" viewBox="0 0 640 640" width="640px" height="640px">
<g id="surface57453121">
<path style=" stroke:none;fill-rule:nonzero;fill:rgb(85.882354%,85.882354%,85.882354%);fill-opacity:1;" d="M 192 533.332031 L 85.332031 533.332031 L 85.332031 213.332031 L 192 213.332031 Z M 138.6875 170.667969 C 109.183594 170.667969 85.332031 146.75 85.332031 117.3125 C 85.332031 87.871094 109.226562 64 138.6875 64 C 168.085938 64 192 87.914062 192 117.3125 C 192 146.75 168.085938 170.667969 138.6875 170.667969 Z M 576 533.332031 L 473.449219 533.332031 L 473.449219 377.601562 C 473.449219 340.457031 472.746094 292.691406 420.136719 292.691406 C 366.742188 292.691406 358.527344 333.140625 358.527344 374.910156 L 358.527344 533.332031 L 256 533.332031 L 256 213.097656 L 354.433594 213.097656 L 354.433594 256.851562 L 355.820312 256.851562 C 369.515625 231.679688 402.988281 205.140625 452.90625 205.140625 C 556.800781 205.140625 576 271.464844 576 357.695312 C 576 357.695312 576 533.332031 576 533.332031 Z M 576 533.332031 "/>
</g>
</svg>
